<?xml version="1.0" encoding="UTF-8"?>
<svg version="1.1" xmlns="http://www.w3.org/2000/svg" width="588" height="125">
<path d="M0 0 C1.1537229 -0.00611329 1.1537229 -0.00611329 2.33075333 -0.01235008 C6.38781705 -0.03305268 10.44484835 -0.04743204 14.50195312 -0.05688477 C18.68508977 -0.06802889 22.86770614 -0.10256383 27.05065727 -0.14205647 C30.27970379 -0.16815981 33.50862351 -0.17657003 36.73776627 -0.18016624 C38.28075882 -0.18503387 39.82374566 -0.196653 41.36663437 -0.21520424 C43.51812902 -0.23950523 45.66823491 -0.23865056 47.81982422 -0.23168945 C49.65321854 -0.24048882 49.65321854 -0.24048882 51.52365112 -0.24946594 C55.24354483 0.33408939 56.38493032 1.27423792 58.6328125 4.23828125 C59.78851954 7.70540236 59.96116543 10.77977685 60.1953125 14.42578125 C60.27910156 15.69808594 60.36289063 16.97039063 60.44921875 18.28125 C60.50980469 19.25707031 60.57039063 20.23289062 60.6328125 21.23828125 C64.13600416 21.23828125 66.46855938 18.14343293 69.0078125 15.92578125 C70.71351779 14.45042233 72.42117956 12.97798356 74.13867188 11.51635742 C75.33592048 10.49224036 76.5148848 9.4467639 77.6875 8.39453125 C80.34408637 6.81551606 82.3212898 6.94144115 85.3828125 7.05078125 C86.86007813 7.09138672 86.86007813 7.09138672 88.3671875 7.1328125 C89.48867187 7.18501953 89.48867187 7.18501953 90.6328125 7.23828125 C92.8796722 15.51302026 92.940793 23.74058074 92.89355469 32.24438477 C92.88275291 34.56357476 92.89354357 36.88200412 92.90625 39.20117188 C92.90492964 40.68880378 92.90236982 42.17643521 92.8984375 43.6640625 C92.90248596 44.35059402 92.90653442 45.03712555 92.91070557 45.74446106 C92.87243493 49.67848044 92.35352092 52.69220365 90.6328125 56.23828125 C86.2360882 57.11057725 81.90924478 57.60608352 77.91650391 55.20703125 C74.96017076 52.96791502 72.26835964 50.48541201 69.578125 47.9375 C65.2196839 43.75134434 65.2196839 43.75134434 59.6328125 42.23828125 C59.68501953 43.64980469 59.68501953 43.64980469 59.73828125 45.08984375 C59.76535156 46.33507812 59.79242188 47.5803125 59.8203125 48.86328125 C59.87251953 50.70792969 59.87251953 50.70792969 59.92578125 52.58984375 C59.6328125 56.23828125 59.6328125 56.23828125 56.6328125 62.23828125 C28.9128125 62.23828125 1.1928125 62.23828125 -27.3671875 62.23828125 C-30.74304778 55.48656068 -30.74304778 55.48656068 -30.75537109 51.24609375 C-30.76482758 50.30491699 -30.77428406 49.36374023 -30.7840271 48.39404297 C-30.77795441 47.3938916 -30.77188171 46.39374023 -30.765625 45.36328125 C-30.76849518 44.32059082 -30.77136536 43.27790039 -30.77432251 42.20361328 C-30.77635883 40.00487727 -30.77085927 37.80612296 -30.75830078 35.60742188 C-30.74224157 32.24958637 -30.75816476 28.8929545 -30.77734375 25.53515625 C-30.77536124 23.3945286 -30.77151741 21.2539017 -30.765625 19.11328125 C-30.77169769 18.11312988 -30.77777039 17.11297852 -30.7840271 16.08251953 C-30.72829597 10.53575848 -30.56247025 5.433564 -26.3671875 1.23828125 C-17.72359118 -0.31895462 -8.75216307 0.03944445 0 0 Z M59.6328125 39.23828125 C59.6328125 39.89828125 59.6328125 40.55828125 59.6328125 41.23828125 C60.2928125 40.90828125 60.9528125 40.57828125 61.6328125 40.23828125 C60.9728125 39.90828125 60.3128125 39.57828125 59.6328125 39.23828125 Z " fill="#F8F8F6" transform="translate(59.3671875,28.76171875)"/>
<path d="M0 0 C6.6495148 5.0583809 11.60051867 12.38153138 13.1875 20.6640625 C13.8537782 30.00477036 13.72069298 40.2514105 7.875 48.0390625 C5.85259087 50.51961393 5.85259087 50.51961393 6.6875 53.2265625 C8.32720094 55.89107654 10.21893323 58.23616349 12.1875 60.6640625 C12.1875 61.3240625 12.1875 61.9840625 12.1875 62.6640625 C9.06251937 62.69302226 5.9375731 62.71084733 2.8125 62.7265625 C1.47832031 62.73913086 1.47832031 62.73913086 0.1171875 62.75195312 C-0.73359375 62.75517578 -1.584375 62.75839844 -2.4609375 62.76171875 C-3.63922119 62.76957397 -3.63922119 62.76957397 -4.84130859 62.77758789 C-6.8125 62.6640625 -6.8125 62.6640625 -8.8125 61.6640625 C-9.946875 61.9734375 -11.08125 62.2828125 -12.25 62.6015625 C-22.14335408 65.18166384 -31.50875038 63.75032474 -40.8125 59.6640625 C-48.61066365 55.00235035 -54.97577421 48.30802121 -57.4453125 39.375 C-59.02159166 27.73736451 -58.90230821 16.86296672 -51.96484375 7.05078125 C-38.40071363 -9.56589358 -17.6366234 -11.47511074 0 0 Z M-36.125 13.9140625 C-40.20241623 20.5587408 -41.9040005 25.83959823 -40.8125 33.6640625 C-39.02324456 39.4665067 -35.95815255 43.36307784 -30.8125 46.6640625 C-27.84208814 47.59262005 -24.88857185 48.20606958 -21.8125 48.6640625 C-21.1525 47.3440625 -20.4925 46.0240625 -19.8125 44.6640625 C-20.37839844 43.90480469 -20.94429688 43.14554688 -21.52734375 42.36328125 C-22.26082031 41.36941406 -22.99429688 40.37554687 -23.75 39.3515625 C-24.48089844 38.36542969 -25.21179688 37.37929687 -25.96484375 36.36328125 C-27.8125 33.6640625 -27.8125 33.6640625 -28.8125 30.6640625 C-25.9158852 30.77836298 -23.02071684 30.9051049 -20.125 31.0390625 C-19.30837891 31.07 -18.49175781 31.1009375 -17.65039062 31.1328125 C-13.31123367 31.34362174 -9.76966543 31.68145009 -5.8125 33.6640625 C-3.82786345 28.87758612 -3.42728837 25.68545465 -4.8125 20.6640625 C-8.07699659 14.64338193 -12.22698565 10.70518683 -18.8125 8.6640625 C-25.33366301 7.84891712 -31.37913239 9.29646158 -36.125 13.9140625 Z " fill="#F1F1EF" transform="translate(436.8125,32.3359375)"/>
<path d="M0 0 C-1.44424635 3.23861303 -3.25772247 5.61969163 -5.625 8.25 C-6.25664062 8.95640625 -6.88828125 9.6628125 -7.5390625 10.390625 C-8.02117187 10.92171875 -8.50328125 11.4528125 -9 12 C-9.556875 11.7834375 -10.11375 11.566875 -10.6875 11.34375 C-18.23340418 8.59051469 -24.54904845 7.80524336 -32.171875 10.94140625 C-35.81809837 13.05278773 -38.12557389 16.25114777 -40 20 C-40.94746675 31.74730883 -40.94746675 31.74730883 -36 42 C-30.85465761 46.28778532 -26.40983642 46.53720504 -19.80859375 46.34765625 C-16.4227303 45.92854381 -13.96737605 44.63205683 -11 43 C-7.49477464 44.19690622 -5.59189516 46.33274039 -3.25 49.125 C-2.63640625 49.84945312 -2.0228125 50.57390625 -1.390625 51.3203125 C-0.70226562 52.15175781 -0.70226562 52.15175781 0 53 C-1.89754811 57.40304853 -4.72505874 59.09063888 -9 61 C-19.28019532 64.42673177 -29.86379168 63.7620381 -40 60 C-47.76259273 55.74779477 -55.0227377 48.13577196 -58.33984375 39.87890625 C-60.39731251 30.90639455 -60.58086308 19.59982783 -56.44140625 11.234375 C-50.30185118 1.71723272 -42.61565931 -4.63897798 -31.5625 -7.66796875 C-20.2609184 -9.13235051 -9.10918407 -6.77349585 0 0 Z " fill="#EDEDEB" transform="translate(238,33)"/>
<path d="M0 0 C6.82642428 4.71861608 9.73681744 10.44646436 11.2265625 18.5390625 C11.83587139 25.32044473 11.83587139 25.32044473 10.2265625 28.5390625 C-0.3334375 28.5390625 -10.8934375 28.5390625 -21.7734375 28.5390625 C-20.43780134 33.48369885 -20.43780134 33.48369885 -17.7734375 34.5390625 C-11.80810801 34.95819513 -6.34187211 34.94703422 -0.7734375 32.5390625 C1.8665625 35.1790625 4.5065625 37.8190625 7.2265625 40.5390625 C4.96889379 45.05439992 4.96889379 45.05439992 1.3515625 46.7265625 C0.33449219 47.21189453 0.33449219 47.21189453 -0.703125 47.70703125 C-7.74222284 50.5359517 -16.69897241 50.81430851 -23.9609375 48.6015625 C-30.29806647 45.74311284 -37.02141787 40.2112248 -39.8984375 33.7890625 C-41.80697711 26.98648203 -41.5918867 19.47585081 -39.7109375 12.7265625 C-34.96119788 4.91247474 -29.7332036 -0.37726007 -20.85546875 -3.03515625 C-13.25119735 -4.59025115 -6.75618724 -3.83923021 0 0 Z M-19.7734375 11.5390625 C-19.4434375 13.5190625 -19.1134375 15.4990625 -18.7734375 17.5390625 C-13.06006377 18.13142834 -13.06006377 18.13142834 -8.2734375 15.5390625 C-7.7784375 14.8790625 -7.2834375 14.2190625 -6.7734375 13.5390625 C-9.41669596 11.00153438 -10.65684422 10.54710342 -14.3984375 10.2890625 C-17.64060355 10.314346 -17.64060355 10.314346 -19.7734375 11.5390625 Z " fill="#F1F1EF" transform="translate(555.7734375,46.4609375)"/>
<path d="M0 0 C0.02505615 0.94842773 0.0501123 1.89685547 0.07592773 2.87402344 C0.1711884 6.40018032 0.27041441 9.92617959 0.37231445 13.45214844 C0.41556707 14.97684386 0.45724885 16.50158469 0.49731445 18.02636719 C0.55525203 20.22084222 0.61887795 22.41509068 0.68359375 24.609375 C0.70030624 25.2886908 0.71701874 25.96800659 0.73423767 26.66790771 C0.83507472 29.90538552 1.03139176 32.89769604 2 36 C8.48385273 36.66729806 8.48385273 36.66729806 14 33.5625 C14.99 32.2940625 14.99 32.2940625 16 31 C16.495 30.505 16.495 30.505 17 30 C17.15873955 27.78312006 17.25133837 25.56144702 17.31640625 23.33984375 C17.33718735 22.67537735 17.35796844 22.01091095 17.37937927 21.3263092 C17.44493658 19.19681457 17.50378785 17.06719332 17.5625 14.9375 C17.60567939 13.49673153 17.64929349 12.05597601 17.69335938 10.61523438 C17.80144527 7.07695097 17.90047093 3.53857603 18 0 C23.28 0 28.56 0 34 0 C37.25559091 16.27795455 34.62846546 34.4915592 34 51 C28.72 51 23.44 51 18 51 C17.34 49.68 16.68 48.36 16 47 C15.39414062 47.37253906 14.78828125 47.74507812 14.1640625 48.12890625 C8.6163336 51.26123934 4.61378688 52.71050187 -1.7421875 51.64453125 C-7.27621919 50.06474712 -10.8653375 46.70199375 -14 42 C-15.78369587 37.52203334 -16.30229982 33.61243557 -16.44921875 28.80859375 C-16.47095657 28.14086441 -16.4926944 27.47313507 -16.51509094 26.78517151 C-16.55874341 25.38270663 -16.5980011 23.98009867 -16.63305664 22.57739258 C-16.68744224 20.43977031 -16.75768879 18.30309613 -16.83007812 16.16601562 C-17.16816733 4.77979385 -17.16816733 4.77979385 -16 0 C-10.28633598 -0.91826743 -5.728103 -0.81228351 0 0 Z " fill="#F0F0EF" transform="translate(473,44)"/>
<path d="M0 0 C5.28 0 10.56 0 16 0 C16.33 3.63 16.66 7.26 17 11 C20.3 11.33 23.6 11.66 27 12 C27 16.29 27 20.58 27 25 C23.97265625 25.24414062 23.97265625 25.24414062 20.9453125 25.48828125 C18.60480784 25.87393036 18.60480784 25.87393036 17 29 C16.77849053 31.52866005 16.67538873 33.91108888 16.6875 36.4375 C16.67074219 37.75621094 16.65398437 39.07492188 16.63671875 40.43359375 C16.80606041 43.90016148 16.80606041 43.90016148 18.08203125 46.47265625 C20.50400803 48.72676898 20.50400803 48.72676898 27 48 C27 52.62 27 57.24 27 62 C23.90083704 63.54958148 20.64928151 63.26681073 17.25 63.3125 C16.54617188 63.34150391 15.84234375 63.37050781 15.1171875 63.40039062 C9.95988139 63.46270009 7.08770526 62.39310271 3 59 C-2.52331537 50.42933821 -1.70991051 36.91786735 -1 27 C-0.67 26.34 -0.34 25.68 0 25 C-0.99 25.33 -1.98 25.66 -3 26 C-4.32 25.67 -5.64 25.34 -7 25 C-7 20.71 -7 16.42 -7 12 C-4.69 12 -2.38 12 0 12 C-1.32 11.34 -2.64 10.68 -4 10 C-2.68 9.67 -1.36 9.34 0 9 C0 6.03 0 3.06 0 0 Z " fill="#F2F2F1" transform="translate(320,32)"/>
<path d="M0 0 C1.3766015 0.06275487 2.75291547 0.13206961 4.12890625 0.20703125 C5.17014648 0.23506836 5.17014648 0.23506836 6.23242188 0.26367188 C8.25 0.375 8.25 0.375 11.69140625 1.01953125 C13.1640625 3.0703125 13.1640625 3.0703125 13.69140625 5.01953125 C14.30886719 4.65859375 14.92632812 4.29765625 15.5625 3.92578125 C21.66026716 0.58453897 25.75410023 -0.53992891 32.69140625 0.01953125 C32.69140625 5.29953125 32.69140625 10.57953125 32.69140625 16.01953125 C30.81453125 16.26703125 28.93765625 16.51453125 27.00390625 16.76953125 C22.19612133 17.5679973 19.07343422 18.29930048 15.69140625 22.01953125 C12.82645353 26.31696033 12.58282529 30.24343746 12.375 35.3203125 C12.33310547 36.29677734 12.29121094 37.27324219 12.24804688 38.27929688 C12.20873047 39.28669922 12.16941406 40.29410156 12.12890625 41.33203125 C12.08572266 42.35876953 12.04253906 43.38550781 11.99804688 44.44335938 C11.89233887 46.96860614 11.79140417 49.49405192 11.69140625 52.01953125 C6.41140625 52.01953125 1.13140625 52.01953125 -4.30859375 52.01953125 C-5.8695943 48.89753015 -5.45051533 45.57849095 -5.44140625 42.15234375 C-5.44236298 41.36238007 -5.4433197 40.57241638 -5.44430542 39.7585144 C-5.44498715 38.07891765 -5.44313336 36.39931828 -5.43896484 34.71972656 C-5.43368731 32.18938998 -5.43887274 29.65923676 -5.4453125 27.12890625 C-5.45402913 8.54642197 -5.45402913 8.54642197 -4.30859375 1.01953125 C-3.30859375 0.01953125 -3.30859375 0.01953125 0 0 Z M11.69140625 8.01953125 C12.69140625 10.01953125 12.69140625 10.01953125 12.69140625 10.01953125 Z " fill="#EFEFEE" transform="translate(250.30859375,42.98046875)"/>
<path d="M0 0 C0.05386629 2.12472576 0.09273071 4.24983652 0.125 6.375 C0.14820313 7.55835938 0.17140625 8.74171875 0.1953125 9.9609375 C0 13 0 13 -2 15 C-1.34 15.66 -0.68 16.32 0 17 C0.24723816 19.16993713 0.24723816 19.16993713 0.24291992 21.89282227 C0.24599655 22.91050186 0.24907318 23.92818146 0.25224304 24.97669983 C0.24505753 26.07880295 0.23787201 27.18090607 0.23046875 28.31640625 C0.22978142 30.00660133 0.22978142 30.00660133 0.2290802 31.73094177 C0.22605536 34.11580456 0.21816221 36.50066533 0.20581055 38.88549805 C0.18755882 42.55068909 0.18530077 46.21562765 0.18554688 49.88085938 C0.18063173 52.19271053 0.17480342 54.50455997 0.16796875 56.81640625 C0.16685593 57.9205336 0.1657431 59.02466095 0.16459656 60.1622467 C0.15821671 61.17677414 0.15183685 62.19130157 0.14526367 63.23657227 C0.13954597 64.58320702 0.13954597 64.58320702 0.13371277 65.95704651 C0 68 0 68 -1 69 C-3.69654854 69.07319621 -6.36691458 69.09242537 -9.0625 69.0625 C-9.82111328 69.05798828 -10.57972656 69.05347656 -11.36132812 69.04882812 C-13.24091871 69.0370068 -15.12046899 69.01907078 -17 69 C-17 46 -17 23 -17 0 C-15.10507254 -0.19644384 -13.20899097 -0.38177288 -11.3125 -0.5625 C-9.72888672 -0.71912109 -9.72888672 -0.71912109 -8.11328125 -0.87890625 C-5.18573914 -0.99277552 -2.82868856 -0.70848415 0 0 Z " fill="#F0F0EE" transform="translate(371,26)"/>
<path d="M0 0 C4.95 0.33 9.9 0.66 15 1 C15 24 15 47 15 70 C9.72 70 4.44 70 -1 70 C-1.86765538 56.76999074 -2.18631521 43.61139833 -2.18530273 30.35400391 C-2.18752999 27.0809299 -2.2058828 23.80817279 -2.22460938 20.53515625 C-2.22753706 18.44270947 -2.22952603 16.35026112 -2.23046875 14.2578125 C-2.24124702 12.79856857 -2.24124702 12.79856857 -2.25224304 11.30984497 C-2.24916641 10.40724945 -2.24608978 9.50465393 -2.24291992 8.57470703 C-2.24434494 7.78516632 -2.24576996 6.99562561 -2.24723816 6.18215942 C-2 4 -2 4 0 0 Z " fill="#FEFEFD" transform="translate(291,25)"/>
<path d="M0 0 C4.95 0.33 9.9 0.66 15 1 C15 24 15 47 15 70 C9.72 70 4.44 70 -1 70 C-1.86765538 56.76999074 -2.18631521 43.61139833 -2.18530273 30.35400391 C-2.18752999 27.0809299 -2.2058828 23.80817279 -2.22460938 20.53515625 C-2.22753706 18.44270947 -2.22952603 16.35026112 -2.23046875 14.2578125 C-2.24124702 12.79856857 -2.24124702 12.79856857 -2.25224304 11.30984497 C-2.24916641 10.40724945 -2.24608978 9.50465393 -2.24291992 8.57470703 C-2.24434494 7.78516632 -2.24576996 6.99562561 -2.24723816 6.18215942 C-2 4 -2 4 0 0 Z M0 20 C0 36.17 0 52.34 0 69 C4.62 69 9.24 69 14 69 C14 52.83 14 36.66 14 20 C9.38 20 4.76 20 0 20 Z " fill="#ADADAC" transform="translate(291,25)"/>
<path d="M0 0 C2.35694954 0.09031574 4.71153582 0.24688128 7.0625 0.4375 C8.35285156 0.53933594 9.64320313 0.64117188 10.97265625 0.74609375 C12.47119141 0.87177734 12.47119141 0.87177734 14 1 C14 5.29 14 9.58 14 14 C9.38 14 4.76 14 0 14 C0 13.01 0 12.02 0 11 C-0.66 10.67 -1.32 10.34 -2 10 C-1.85950482 8.52031676 -1.71245174 7.04125484 -1.5625 5.5625 C-1.48128906 4.73878906 -1.40007812 3.91507813 -1.31640625 3.06640625 C-1 1 -1 1 0 0 Z " fill="#F6F6F5" transform="translate(291,25)"/>
<path d="M0 0 C0.33 0.66 0.66 1.32 1 2 C1.66 2 2.32 2 3 2 C3 5.96 3 9.92 3 14 C-1.62 14 -6.24 14 -11 14 C-11 9.71 -11 5.42 -11 1 C-5.555 0.505 -5.555 0.505 0 0 Z " fill="#FAFAF9" transform="translate(366,25)"/>
<path d="M0 0 C1.32 0.33 2.64 0.66 4 1 C4.05386629 3.12472576 4.09273071 5.24983652 4.125 7.375 C4.14820313 8.55835938 4.17140625 9.74171875 4.1953125 10.9609375 C4 14 4 14 2 16 C2.66 16.66 3.32 17.32 4 18 C3.625 20.125 3.625 20.125 3 22 C3 21.34 3 20.68 3 20 C2.33613281 19.93941406 1.67226563 19.87882812 0.98828125 19.81640625 C-7.78207381 18.98418278 -7.78207381 18.98418278 -12 18 C-13.18681726 14.43954823 -13.09689832 11.56191663 -13.0625 7.8125 C-13.05347656 6.54019531 -13.04445313 5.26789062 -13.03515625 3.95703125 C-13.02355469 2.98121094 -13.01195312 2.00539063 -13 1 C-12.67 1 -12.34 1 -12 1 C-12 5.29 -12 9.58 -12 14 C-7.38 14 -2.76 14 2 14 C2 10.04 2 6.08 2 2 C1.34 2 0.68 2 0 2 C0 1.34 0 0.68 0 0 Z " fill="#7B7B7B" transform="translate(367,25)"/>
<path d="M0 0 C0.33 0 0.66 0 1 0 C1.02699725 2.27076842 1.04639453 4.54162821 1.0625 6.8125 C1.07410156 8.07707031 1.08570313 9.34164062 1.09765625 10.64453125 C1 14 1 14 0 17 C-1.60681641 17.07347656 -1.60681641 17.07347656 -3.24609375 17.1484375 C-4.64325639 17.22345294 -6.0403905 17.2990013 -7.4375 17.375 C-8.14455078 17.4059375 -8.85160156 17.436875 -9.58007812 17.46875 C-11.39239188 17.57280629 -13.19817988 17.77919892 -15 18 C-15.33 18.66 -15.66 19.32 -16 20 C-16 16.7 -16 13.4 -16 10 C-15.34 10 -14.68 10 -14 10 C-14 10.99 -14 11.98 -14 13 C-9.38 13 -4.76 13 0 13 C0 8.71 0 4.42 0 0 Z " fill="#7E7E7E" transform="translate(305,26)"/>
<path d="M0 0 C1.32 0.33 2.64 0.66 4 1 C3.01 2.485 3.01 2.485 2 4 C1.77849053 6.52866005 1.67538873 8.91108888 1.6875 11.4375 C1.67074219 12.75621094 1.65398437 14.07492188 1.63671875 15.43359375 C2.01257495 19.12345085 2.41346372 20.43769357 5 23 C5.99 23.66 6.98 24.32 8 25 C3.50421359 25.36452322 3.50421359 25.36452322 1.3503418 23.80737305 C-0.45521165 21.39071925 -0.3449147 19.89008113 -0.29296875 16.89453125 C-0.28330078 15.91162109 -0.27363281 14.92871094 -0.26367188 13.91601562 C-0.23853516 12.89185547 -0.21339844 11.86769531 -0.1875 10.8125 C-0.17396484 9.77673828 -0.16042969 8.74097656 -0.14648438 7.67382812 C-0.11111389 5.11536301 -0.06175544 2.5579422 0 0 Z " fill="#858584" transform="translate(335,57)"/>
<path d="M0 0 C0 0.66 0 1.32 0 2 C-1.60681641 2.07347656 -1.60681641 2.07347656 -3.24609375 2.1484375 C-4.64325639 2.22345294 -6.0403905 2.2990013 -7.4375 2.375 C-8.14455078 2.4059375 -8.85160156 2.436875 -9.58007812 2.46875 C-11.39239188 2.57280629 -13.19817988 2.77919892 -15 3 C-15.33 3.66 -15.66 4.32 -16 5 C-15.67 3.35 -15.34 1.7 -15 0 C-10.1129572 -1.5638537 -4.8870428 -1.5638537 0 0 Z " fill="#3E3E3E" transform="translate(305,41)"/>
<path d="M0 0 C1.32 0.33 2.64 0.66 4 1 C4 5.29 4 9.58 4 14 C3.34 14 2.68 14 2 14 C2 10.04 2 6.08 2 2 C1.34 2 0.68 2 0 2 C0 1.34 0 0.68 0 0 Z " fill="#A5A5A5" transform="translate(367,25)"/>
<path d="M0 0 C0.33 0 0.66 0 1 0 C0.67 2.64 0.34 5.28 0 8 C-1.9375 7.1875 -1.9375 7.1875 -4 6 C-4.33 5.01 -4.66 4.02 -5 3 C-3.68 3 -2.36 3 -1 3 C-0.67 2.01 -0.34 1.02 0 0 Z " fill="#5F5F5F" transform="translate(432,62)"/>
<path d="M0 0 C0.103125 0.639375 0.20625 1.27875 0.3125 1.9375 C0.539375 2.618125 0.76625 3.29875 1 4 C1.99 4.33 2.98 4.66 4 5 C1.36 5.33 -1.28 5.66 -4 6 C-1.125 1.125 -1.125 1.125 0 0 Z " fill="#5D5D5D" transform="translate(535,58)"/>
<path d="M0 0 C2.97 0 5.94 0 9 0 C8.67 0.66 8.34 1.32 8 2 C5.67843403 2.40729228 3.3431213 2.74438677 1 3 C0.67 2.01 0.34 1.02 0 0 Z " fill="#4F4F4F" transform="translate(355,41)"/>
<path d="M0 0 C0.99 1.32 1.98 2.64 3 4 C3.66 4.33 4.32 4.66 5 5 C4.01 5.66 3.02 6.32 2 7 C1.27034634 9.56282742 1.27034634 9.56282742 1 12 C0.67 12 0.34 12 0 12 C0 8.04 0 4.08 0 0 Z " fill="#7B7B7A" transform="translate(261,44)"/>
<path d="" fill="#FFFFFF" transform="translate(0,0)"/>
</svg>
